<svg width="18" height="15" viewBox="0 0 18 15" xmlns="http://www.w3.org/2000/svg"><path d="M17.972 2.065c-.662.294-1.374.492-2.12.58.76-.456 1.346-1.18 1.622-2.042-.714.423-1.504.73-2.346.896C14.456.78 13.496.332 12.434.332c-2.04 0-3.693 1.653-3.693 3.693 0 .29.034.57.096.84-3.07-.152-5.79-1.622-7.61-3.857-.318.545-.5 1.18-.5 1.856 0 1.282.65 2.41 1.64 3.073-.604-.02-1.173-.186-1.672-.462v.046c0 1.79 1.273 3.283 2.963 3.62-.31.085-.637.13-.973.13-.238 0-.47-.023-.695-.067.47 1.467 1.833 2.535 3.45 2.565-1.264.99-2.857 1.58-4.587 1.58-.298 0-.592-.016-.88-.05 1.633 1.047 3.574 1.658 5.66 1.658 6.792 0 10.507-5.627 10.507-10.508 0-.16-.003-.32-.01-.478.72-.52 1.347-1.17 1.84-1.91h.002z" fill-rule="nonzero" /></svg>
